<?xml version="1.0" standalone="no"?>
<!DOCTYPE svg PUBLIC "-//W3C//DTD SVG 20010904//EN"
 "http://www.w3.org/TR/2001/REC-SVG-20010904/DTD/svg10.dtd">
<svg version="1.0" xmlns="http://www.w3.org/2000/svg"
 width="225.000000pt" height="225.000000pt" viewBox="0 0 225.000000 225.000000"
 preserveAspectRatio="xMidYMid meet">

<g transform="translate(0.000000,225.000000) scale(0.100000,-0.100000)"
fill="#000000" stroke="none">
<path d="M65 2218 c5 -34 21 -266 32 -465 5 -97 4 -113 -10 -119 -8 -3 -24 -1
-36 5 -16 9 -21 8 -26 -9 -4 -11 -11 -18 -16 -14 -6 3 -9 -115 -8 -325 0 -193
5 -329 10 -325 5 3 8 -24 7 -60 -1 -36 -4 -66 -7 -66 -3 0 -7 -189 -9 -420
l-4 -420 136 0 136 0 0 28 c0 16 6 50 14 77 12 37 13 60 4 104 -13 69 -3 268
19 406 12 73 13 100 4 103 -14 5 -15 32 0 32 8 0 8 4 -1 15 -8 10 -10 35 -6
82 4 38 7 82 7 98 0 23 2 26 9 15 8 -13 10 -13 10 2 0 55 95 198 131 198 5 0
9 6 9 13 0 7 23 23 52 37 28 13 69 39 91 57 40 34 70 45 48 19 -13 -16 -12
-106 1 -106 5 0 26 9 46 19 21 11 71 23 111 27 l73 7 -6 31 c-15 85 -18 118
-12 148 7 37 71 118 92 118 8 0 20 12 26 28 11 27 11 27 17 4 3 -13 9 -23 14
-23 4 1 14 1 22 1 30 0 29 31 -1 56 -25 20 -26 23 -10 24 11 0 28 -7 38 -17
14 -12 18 -13 18 -2 0 7 -12 23 -26 34 l-26 21 28 47 c39 64 119 107 199 107
79 0 87 -11 102 -139 6 -58 9 -109 7 -113 -3 -5 -25 -8 -49 -8 -62 0 -65 -17
-4 -22 46 -5 68 -18 69 -41 0 -4 -9 -3 -19 3 -24 12 -102 14 -83 1 8 -4 13
-12 11 -16 -3 -10 23 -45 34 -45 4 0 5 5 2 10 -3 6 -1 10 4 10 6 0 11 7 11 16
0 14 2 14 16 3 14 -12 14 -14 -2 -26 -18 -13 -10 -18 23 -14 17 2 45 -56 46
-95 1 -22 -7 -42 -21 -57 -12 -13 -22 -30 -22 -38 0 -12 2 -12 10 1 7 12 11 8
16 -16 7 -35 37 -54 86 -54 48 0 113 -79 153 -186 33 -86 52 -121 40 -72 -4
15 -8 39 -9 52 0 13 -4 22 -8 19 -5 -2 -8 2 -8 10 0 8 10 17 23 21 26 6 50 47
41 70 -5 13 0 14 26 6 18 -5 41 -17 52 -27 27 -24 75 -112 87 -158 5 -22 19
-64 29 -93 14 -40 17 -63 11 -90 -6 -30 -3 -45 21 -91 16 -31 60 -123 98 -206
l69 -150 -9 -100 c-9 -85 -8 -106 6 -138 16 -36 17 -37 71 -37 l55 0 0 1125
c0 946 -2 1125 -14 1125 -10 0 -15 -28 -20 -117 -11 -171 -25 -260 -20 -118 3
61 7 138 10 173 3 49 2 62 -9 62 -12 0 -15 -36 -19 -185 -3 -113 -9 -190 -15
-196 -8 -8 -10 -1 -8 22 2 19 6 107 9 197 l6 162 -420 0 -420 0 0 -62 0 -63
-70 -1 c-80 -2 -115 -14 -181 -61 -25 -18 -49 -30 -52 -26 -4 3 -7 53 -7 110
l0 103 -480 0 -481 0 6 -32z m1346 -18 c2 -19 7 -41 12 -47 6 -8 5 -19 -3 -28
-22 -26 -32 -1 -25 59 8 64 12 67 16 16z m410 -37 c1 -21 3 -30 6 -20 2 9 9
15 14 11 5 -3 7 -10 3 -15 -3 -6 5 -7 21 -3 26 7 27 6 20 -27 -9 -43 -13 -49
-31 -49 -8 0 -14 -5 -14 -11 0 -6 -6 -17 -14 -24 -9 -9 -14 -42 -15 -97 l-2
-84 48 -3 c58 -3 70 -11 20 -12 -55 -2 -57 -3 -67 -19 -8 -13 -10 -13 -10 2 0
12 -6 16 -17 12 -17 -5 -17 -5 0 9 13 11 17 30 17 91 0 49 -4 75 -10 71 -6 -3
-13 0 -16 9 -3 8 -12 12 -20 9 -12 -4 -11 -8 3 -22 10 -9 19 -27 20 -41 1 -14
0 -19 -3 -12 -3 6 -10 10 -14 7 -5 -3 -14 4 -20 15 -10 18 -14 19 -27 8 -14
-11 -16 -10 -11 15 6 33 -14 32 -22 -1 -5 -20 -6 -20 -28 12 -12 18 -24 42
-26 52 -3 10 -7 27 -11 37 -6 14 -1 17 30 17 21 0 34 4 30 10 -3 6 -2 10 4 10
5 0 12 -6 14 -12 4 -10 8 -10 14 -2 4 7 17 14 28 16 11 2 19 10 17 18 -3 11 0
11 13 0 9 -7 15 -9 14 -4 -4 15 20 64 31 64 5 0 11 -17 11 -37z m190 14 c-10
-9 -11 -8 -5 6 3 10 9 15 12 12 3 -3 0 -11 -7 -18z m119 -16 c0 -6 -4 -13 -10
-16 -5 -3 -10 1 -10 9 0 9 5 16 10 16 6 0 10 -4 10 -9z m-191 -52 c-21 -12
-24 -2 -8 28 14 26 14 26 17 3 2 -12 -2 -26 -9 -31z m184 9 c2 -7 4 -26 3 -43
-1 -25 -5 -30 -23 -28 -13 2 -23 -2 -23 -7 0 -6 5 -10 10 -10 24 0 35 -24 31
-67 l-3 -44 -23 21 c-13 12 -28 19 -34 15 -6 -3 -11 1 -11 9 0 9 6 16 14 16
17 0 29 27 16 35 -6 4 -10 1 -10 -6 0 -7 -3 -9 -7 -5 -4 3 -13 -4 -21 -16 -7
-13 -11 -15 -8 -6 3 10 1 20 -4 23 -18 11 -10 27 10 22 11 -3 18 -1 15 4 -3 4
3 14 15 21 11 7 20 16 20 21 0 4 -4 5 -10 2 -5 -3 -10 2 -10 11 0 15 4 14 26
-7 l26 -24 -7 25 c-4 14 -10 31 -12 38 -3 6 -1 12 5 12 5 0 12 -6 15 -12z
m-153 -48 c0 -5 -4 -10 -10 -10 -5 0 -10 5 -10 10 0 6 5 10 10 10 6 0 10 -4
10 -10z m80 -15 c0 -8 -7 -15 -15 -15 -13 0 -14 3 -3 15 16 18 18 18 18 0z
m-124 -62 c-10 -10 -19 5 -10 18 6 11 8 11 12 0 2 -7 1 -15 -2 -18z m8 -110
c-5 -19 -8 -20 -20 -8 -17 17 -18 32 -1 38 18 7 27 -6 21 -30z m-157 5 c-3 -8
-6 -5 -6 6 -1 11 2 17 5 13 3 -3 4 -12 1 -19z m220 6 c2 -5 -6 -10 -17 -11
-11 -1 -20 4 -20 12 0 15 32 14 37 -1z m133 -4 c0 -11 -7 -20 -15 -20 -18 0
-19 6 -2 25 16 19 17 18 17 -5z m-90 -40 c0 -5 -5 -10 -11 -10 -5 0 -7 5 -4
10 3 6 8 10 11 10 2 0 4 -4 4 -10z m-90 -10 c0 -5 -8 -10 -17 -10 -15 0 -16 2
-3 10 19 12 20 12 20 0z m35 0 c-3 -5 -10 -10 -16 -10 -5 0 -9 5 -9 10 0 6 7
10 16 10 8 0 12 -4 9 -10z m13 -92 c12 -59 7 -66 -44 -70 -35 -2 -43 0 -39 11
3 7 -2 19 -11 26 -25 18 -8 38 26 31 24 -4 29 -1 34 19 10 38 24 30 34 -17z
m-131 5 c1 -21 0 -23 -6 -10 -4 10 -10 18 -14 18 -24 -3 -28 2 -7 9 14 4 25 8
25 9 0 1 1 -11 2 -26z m215 -7 c11 -11 16 -11 35 1 12 8 27 12 33 8 15 -9 2
-25 -21 -25 -19 0 -19 -1 -4 -16 21 -21 8 -35 -34 -36 -37 -1 -51 9 -31 23 13
8 12 11 -4 24 -10 7 -15 18 -11 24 9 15 22 14 37 -3z m-1325 -20 c-3 -8 -1
-17 6 -20 7 -2 4 -5 -5 -5 -10 -1 -22 8 -28 19 -9 17 -8 20 11 20 14 0 19 -5
16 -14z m959 -33 c-10 -10 -19 5 -10 18 6 11 8 11 12 0 2 -7 1 -15 -2 -18z
m154 -3 c-14 -4 -50 -8 -80 -8 -42 0 -49 2 -30 8 14 4 50 8 80 8 42 0 49 -2
30 -8z m0 -14 c0 -3 -4 -8 -10 -11 -5 -3 -10 -1 -10 4 0 6 5 11 10 11 6 0 10
-2 10 -4z m87 -22 c-3 -3 -12 -4 -19 -1 -8 3 -5 6 6 6 11 1 17 -2 13 -5z
m-1895 -36 c3 -7 11 -13 19 -13 8 0 15 -3 17 -7 1 -5 0 -8 -3 -8 -51 0 -77 3
-67 7 6 2 12 11 12 19 0 17 17 19 22 2z m498 -123 c7 -8 9 -23 5 -32 -6 -16
-8 -16 -26 6 -10 13 -19 27 -19 32 0 14 26 10 40 -6z m-147 -342 c-7 -2 -21
-2 -30 0 -10 3 -4 5 12 5 17 0 24 -2 18 -5z m-246 -85 c-3 -8 -6 -5 -6 6 -1
11 2 17 5 13 3 -3 4 -12 1 -19z m146 2 c-3 -12 -8 -19 -11 -16 -5 6 5 36 12
36 2 0 2 -9 -1 -20z m27 -5 c0 -8 -4 -15 -10 -15 -5 0 -7 7 -4 15 4 8 8 15 10
15 2 0 4 -7 4 -15z m-310 -55 c0 -5 -4 -10 -10 -10 -5 0 -10 5 -10 10 0 6 5
10 10 10 6 0 10 -4 10 -10z m146 -117 c-3 -43 -2 -63 7 -67 9 -3 9 -7 -1 -14
-9 -6 -14 -45 -17 -123 -7 -186 -9 -192 -15 -39 -3 80 -3 146 0 147 3 2 4 37
2 79 -2 42 -1 88 3 103 l7 26 10 -25 c5 -14 7 -53 4 -87z m64 92 c0 -8 -4 -15
-10 -15 -5 0 -7 7 -4 15 4 8 8 15 10 15 2 0 4 -7 4 -15z m-203 -17 c-3 -8 -6
-5 -6 6 -1 11 2 17 5 13 3 -3 4 -12 1 -19z m-20 -190 c-3 -7 -5 -2 -5 12 0 14
2 19 5 13 2 -7 2 -19 0 -25z"/>
<path d="M2086 1984 c-8 -22 -8 -26 3 -19 5 3 12 -3 14 -12 3 -10 5 -3 6 15 1
33 -12 43 -23 16z"/>
<path d="M162 930 c0 -14 2 -19 5 -12 2 6 2 18 0 25 -3 6 -5 1 -5 -13z"/>
<path d="M992 1238 c3 -7 20 -16 39 -20 49 -12 79 -29 79 -45 0 -16 8 -16 37
0 l22 12 -27 11 c-154 61 -156 62 -150 42z"/>
<path d="M1031 1189 c-1 -17 18 -29 45 -29 9 0 12 5 9 10 -3 6 -15 10 -25 10
-10 0 -21 6 -23 13 -4 7 -6 6 -6 -4z"/>
<path d="M917 895 c-17 -23 -17 -30 -2 -106 20 -109 19 -177 -6 -279 -11 -47
-26 -129 -34 -184 -12 -87 -12 -103 2 -140 25 -67 26 -98 3 -141 l-20 -40 316
-3 c175 -1 319 0 321 2 2 2 -6 36 -17 75 -12 39 -20 78 -16 86 3 8 1 17 -3 20
-5 2 -9 51 -9 107 0 94 -3 109 -31 168 -17 36 -37 94 -46 130 -49 203 -69 261
-94 278 -36 24 -67 22 -63 -3 5 -30 4 -46 -6 -93 -10 -45 -43 -122 -52 -122
-4 0 -12 17 -19 37 -10 27 -11 38 -3 41 7 2 22 12 34 23 21 18 20 18 -14 -1
-39 -23 -44 -20 -58 32 -6 19 -6 38 1 49 7 13 6 19 -2 19 -6 0 -13 -9 -16 -20
-6 -21 -28 -27 -38 -10 -3 6 2 10 12 11 14 0 13 2 -5 10 -13 5 -28 6 -33 3 -6
-3 -26 13 -47 35 l-37 41 -18 -25z m327 -36 c-6 -11 -24 -2 -24 11 0 5 7 7 15
4 8 -4 12 -10 9 -15z m-133 -129 c5 0 6 -7 3 -15 -4 -8 -10 -15 -15 -15 -4 0
-5 7 -2 17 4 11 3 14 -5 9 -8 -5 -12 2 -11 21 0 27 1 27 11 6 6 -13 15 -23 19
-23z m40 -89 c11 -10 -9 -51 -26 -51 -8 0 -15 6 -15 13 0 6 -3 23 -7 36 -5 21
-3 23 18 16 13 -4 27 -10 30 -14z"/>
<path d="M1193 895 c-3 -9 -3 -18 -1 -21 3 -3 8 4 11 16 6 23 -1 27 -10 5z"/>
<path d="M1117 881 c-4 -17 -3 -21 5 -13 5 5 8 16 6 23 -3 8 -7 3 -11 -10z"/>
<path d="M313 804 c-3 -8 -1 -20 6 -27 8 -8 11 -4 11 16 0 30 -7 35 -17 11z"/>
<path d="M1730 811 c0 -5 5 -13 10 -16 6 -3 10 -2 10 4 0 5 -4 13 -10 16 -5 3
-10 2 -10 -4z"/>
</g>
</svg>
